# xmcd
#
# Track frame offsets: 
#        150
#        16184
#        35020
#        51962
#        65853
#        78836
#        94695
#        111011
#        127513
#        143179
#        159906
#        177671
#        194124
#        208628
#        223248
#        236462
#        253704
#        273793
#        290825
#        308149
#
# Disc length: 4351 seconds
#
# Revision: 0
# Processed by: cddbd v1.5.2PL0 Copyright (c) Steve Scherf et al.
# Submitted via: ExactAudioCopyFreeDBPlugin 1.0
#
DISCID=2810fd14
DTITLE=Juice Newton - Old Flame and Emotion
DYEAR=2015
DGENRE=Country
TTITLE0=Cheap Love
TTITLE1=You Make Me Want To Make You Mine
TTITLE2=Hurt
TTITLE3=Old Flame
TTITLE4=Stuck In The Middle With You
TTITLE5=Feel A Whole Lot Better
TTITLE6=What Can I Do With My Heart
TTITLE7=With You
TTITLE8=One Touch
TTITLE9=Let Your Woman Take Care Of You
TTITLE10=Both To Each Other (Friends And Lovers)
TTITLE11=First Time Caller
TTITLE12=Tell Me True
TTITLE13=Emotions
TTITLE14=Walkin' Into Trouble
TTITLE15=If I Didn't Love You
TTITLE16=I Still Love You
TTITLE17=Someone Believed
TTITLE18=Old Bye And Bye
TTITLE19=Til You Cry
EXTD=
EXTT0=
EXTT1=
EXTT2=
EXTT3=
EXTT4=
EXTT5=
EXTT6=
EXTT7=
EXTT8=
EXTT9=
EXTT10=
EXTT11=
EXTT12=
EXTT13=
EXTT14=
EXTT15=
EXTT16=
EXTT17=
EXTT18=
EXTT19=
PLAYORDER=
